<?xml version="1.0" encoding="UTF-8" standalone="no"?>
<svg width="197px" height="213px" viewBox="0 0 197 213" version="1.1" xmlns="http://www.w3.org/2000/svg" xmlns:xlink="http://www.w3.org/1999/xlink">
    <title>chaplin_logo</title>
    <desc>Created with  Sketch.</desc>   <defs></defs>
    <g id="Page-1" stroke="none" stroke-width="1" fill="none" fill-rule="evenodd">
        <g id="diamond"  transform="translate(51.000000, 58.000000)" fill="#000000">
            <g id="Group" >
                <path d="M89.748,33.161 L2.858,33.161 C1.754,33.161 0.858,32.265 0.858,31.161 C0.858,30.057 1.754,29.161 2.858,29.161 L89.748,29.161 C90.852,29.161 91.748,30.057 91.748,31.161 C91.748,32.265 90.853,33.161 89.748,33.161 L89.748,33.161 Z" id="Shape"></path>
                <path d="M93.392,30.972 C93.431,30.584 93.359,30.18 93.158,29.812 L77.607,1.389 C77.592,1.362 77.572,1.34 77.556,1.314 C77.52,1.255 77.482,1.2 77.441,1.146 C77.4,1.092 77.359,1.041 77.314,0.993 C77.273,0.949 77.23,0.908 77.185,0.868 C77.132,0.821 77.081,0.776 77.024,0.735 C76.977,0.701 76.927,0.671 76.877,0.64 C76.817,0.604 76.758,0.57 76.695,0.541 C76.64,0.516 76.586,0.495 76.529,0.475 C76.463,0.451 76.397,0.43 76.329,0.413 C76.273,0.399 76.217,0.39 76.16,0.381 C76.084,0.369 76.009,0.361 75.931,0.358 C75.905,0.357 75.879,0.35 75.852,0.35 L18.673,0.35 C18.644,0.35 18.617,0.357 18.588,0.359 C18.524,0.361 18.461,0.369 18.397,0.378 C18.327,0.388 18.259,0.399 18.192,0.415 C18.137,0.429 18.085,0.447 18.031,0.465 C17.961,0.489 17.893,0.513 17.827,0.544 C17.776,0.568 17.728,0.596 17.679,0.625 C17.617,0.66 17.557,0.696 17.5,0.738 C17.452,0.773 17.407,0.812 17.362,0.852 C17.31,0.897 17.258,0.944 17.211,0.995 C17.171,1.038 17.135,1.084 17.098,1.132 C17.053,1.19 17.01,1.249 16.972,1.312 C16.959,1.334 16.941,1.352 16.929,1.374 L1.114,29.591 C1.028,29.744 0.972,29.904 0.93,30.067 C0.455,30.789 0.481,31.76 1.067,32.453 L45.472,84.944 C45.5,84.977 45.535,85.001 45.565,85.032 C45.612,85.081 45.654,85.134 45.708,85.178 C45.725,85.194 45.744,85.201 45.761,85.215 C45.801,85.246 45.841,85.274 45.882,85.301 C45.955,85.35 46.029,85.395 46.107,85.434 C46.15,85.455 46.192,85.475 46.237,85.495 C46.322,85.53 46.41,85.557 46.499,85.581 C46.537,85.591 46.574,85.602 46.612,85.61 C46.74,85.635 46.869,85.651 46.999,85.651 L47,85.651 L47.001,85.651 C47.131,85.651 47.26,85.635 47.388,85.61 C47.427,85.602 47.464,85.59 47.502,85.581 C47.591,85.558 47.678,85.53 47.764,85.495 C47.808,85.475 47.85,85.456 47.893,85.434 C47.971,85.395 48.046,85.35 48.12,85.299 C48.16,85.272 48.2,85.246 48.238,85.217 C48.256,85.203 48.275,85.194 48.293,85.178 C48.347,85.133 48.389,85.08 48.436,85.03 C48.466,85.001 48.5,84.977 48.529,84.944 L92.93,32.453 C93.291,32.025 93.44,31.489 93.392,30.972 L93.392,30.972 Z M46.998,80.555 L4.976,30.881 L19.845,4.349 L74.667,4.349 L89.118,30.764 L46.998,80.555 L46.998,80.555 Z" id="Shape"></path>
                <path d="M28.916,31.363 C28.641,31.363 28.362,31.306 28.096,31.186 C27.089,30.732 26.64,29.548 27.094,28.541 L38.902,2.319 C39.356,1.311 40.543,0.864 41.547,1.317 C42.554,1.771 43.003,2.955 42.549,3.962 L30.741,30.184 C30.407,30.924 29.679,31.363 28.916,31.363 L28.916,31.363 Z" id="Shape"></path>
                <path d="M65.712,31.363 C64.949,31.363 64.221,30.925 63.888,30.184 L52.028,3.848 C51.574,2.841 52.023,1.657 53.03,1.203 C54.037,0.75 55.222,1.198 55.675,2.205 L67.535,28.541 C67.989,29.548 67.54,30.732 66.533,31.186 C66.266,31.307 65.986,31.363 65.712,31.363 L65.712,31.363 Z" id="Shape"></path>
                <path d="M66.392,30.736 C65.351,30.36 64.206,30.897 63.83,31.936 C61.371,38.732 58.693,45.552 56.103,52.146 C53.006,60.031 49.825,68.142 47.037,76.171 L30.795,31.791 C30.416,30.753 29.267,30.222 28.23,30.601 C27.193,30.98 26.66,32.129 27.039,33.166 L44.464,80.778 C44.687,81.387 45.176,81.823 45.752,82.001 C45.987,82.429 46.374,82.772 46.873,82.939 C47.081,83.007 47.291,83.041 47.499,83.041 C48.339,83.041 49.121,82.506 49.398,81.666 C52.459,72.371 56.038,63.258 59.827,53.609 C62.427,46.99 65.114,40.146 67.593,33.299 C67.968,32.259 67.43,31.112 66.392,30.736 L66.392,30.736 Z" id="Shape"></path>
            </g>
        </g>
        <g id="hat"  transform="translate(16.000000, -3.000000)">
            <g id="noun_145955_cc" transform="translate(67.853553, 48.887628) rotate(-15.000000) translate(-67.853553, -48.887628) translate(6.853553, 14.887628)" fill="#000000" >
                <g id="Group" transform="translate(0.000000, 1.000000)">
                    <path d="M99.4425287,52.0645833 L99.4425287,29.0333333 C99.4425287,-0.139583333 60.3609195,0.697916667 60.3609195,0.697916667 C60.3609195,0.697916667 21.5574713,-0.139583333 21.5574713,29.0333333 L21.5574713,52.2041667 L99.4425287,52.2041667 L99.4425287,52.0645833 Z" id="Shape"></path>
                    <path d="M118.635632,59.04375 C117.383908,57.7875 115.575862,57.0895833 113.767816,56.95 L7.23218391,56.95 C5.42413793,56.95 3.61609195,57.6479167 2.36436782,59.04375 C0.973563218,60.3 0.27816092,62.2541667 2.36436782,64.3479167 C3.75517241,65.74375 5.70229885,66.4416667 7.64942529,66.4416667 L113.072414,66.4416667 C115.01954,66.4416667 116.966667,65.74375 118.357471,64.3479167 C120.721839,62.1145833 119.887356,60.3 118.635632,59.04375 L118.635632,59.04375 Z" id="Shape"></path>
                </g>
            </g>
            <path d="M33.7687141,66.0013579 L111.768714,66.0013579 L112.483005,72.1221991 L33.2753953,72.243209 L33.7687141,66.0013579 Z" id="Rectangle-1" fill="#FFFFFF"  transform="translate(72.879200, 69.122283) rotate(-15.000000) translate(-72.879200, -69.122283) "></path>
        </g>
        <text id="Chaplin-Copy-3"  font-family="Courier New" font-size="42" font-weight="normal" fill="#000000">
            <tspan x="10" y="192">Chaplin</tspan>
        </text>
    </g>
</svg>